<svg xmlns="http://www.w3.org/2000/svg" xmlns:xlink="http://www.w3.org/1999/xlink" width="127" zoomAndPan="magnify" viewBox="0 0 95.25 33.749999" height="45" preserveAspectRatio="xMidYMid meet" version="1.0"><defs><g/><clipPath id="75a4db9d78"><path d="M 0 0.0078125 L 94.507812 0.0078125 L 94.507812 33.492188 L 0 33.492188 Z M 0 0.0078125 " clip-rule="nonzero"/></clipPath><clipPath id="b5b03775a5"><path d="M 0 0.0078125 L 94.503906 0.0078125 L 94.503906 33.492188 L 0 33.492188 Z M 0 0.0078125 " clip-rule="nonzero"/></clipPath><clipPath id="f8a5d866a6"><path d="M 3.347656 0.0078125 L 26.417969 0.0078125 L 26.417969 33.492188 L 3.347656 33.492188 Z M 3.347656 0.0078125 " clip-rule="nonzero"/></clipPath></defs><g clip-path="url(#75a4db9d78)"><path fill="#F8F8F8" d="M 0 0.0078125 L 95.25 0.0078125 L 95.25 41.679688 L 0 41.679688 Z M 0 0.0078125 " fill-opacity="1" fill-rule="nonzero"/></g><g clip-path="url(#b5b03775a5)"><path fill="#f8f8f8" d="M 0 0.0078125 L 94.503906 0.0078125 L 94.503906 33.492188 L 0 33.492188 Z M 0 0.0078125 " fill-opacity="1" fill-rule="nonzero"/><path fill="#f8f8f8" d="M 0 0.0078125 L 94.503906 0.0078125 L 94.503906 33.492188 L 0 33.492188 Z M 0 0.0078125 " fill-opacity="1" fill-rule="nonzero"/></g><g clip-path="url(#f8a5d866a6)"><path fill="#040606" d="M 14.261719 15.429688 C 14.359375 15.425781 14.457031 15.445312 14.542969 15.488281 C 14.628906 15.53125 14.707031 15.59375 14.773438 15.671875 C 14.839844 15.75 14.890625 15.84375 14.929688 15.949219 C 14.964844 16.054688 14.984375 16.167969 14.984375 16.292969 C 14.984375 16.394531 14.972656 16.496094 14.945312 16.589844 C 14.917969 16.679688 14.878906 16.765625 14.828125 16.84375 C 14.78125 16.917969 14.722656 16.984375 14.65625 17.039062 C 14.59375 17.09375 14.519531 17.132812 14.441406 17.160156 L 14.441406 18.988281 C 14.519531 19.011719 14.59375 19.054688 14.65625 19.105469 C 14.722656 19.160156 14.78125 19.226562 14.828125 19.300781 C 14.878906 19.378906 14.917969 19.464844 14.945312 19.554688 C 14.972656 19.648438 14.984375 19.746094 14.984375 19.851562 C 14.984375 19.972656 14.964844 20.089844 14.929688 20.195312 C 14.890625 20.300781 14.839844 20.394531 14.773438 20.472656 C 14.707031 20.550781 14.628906 20.613281 14.542969 20.652344 C 14.457031 20.695312 14.359375 20.714844 14.261719 20.710938 C 14.164062 20.707031 14.066406 20.679688 13.984375 20.632812 C 13.898438 20.585938 13.820312 20.519531 13.757812 20.4375 C 13.695312 20.355469 13.640625 20.261719 13.605469 20.15625 C 13.570312 20.050781 13.550781 19.933594 13.550781 19.8125 C 13.550781 19.714844 13.566406 19.617188 13.589844 19.527344 C 13.617188 19.4375 13.65625 19.355469 13.703125 19.28125 C 13.75 19.210938 13.804688 19.144531 13.871094 19.09375 C 13.933594 19.042969 14.003906 19.003906 14.082031 18.980469 L 14.082031 17.164062 C 14.003906 17.140625 13.933594 17.101562 13.871094 17.050781 C 13.804688 17 13.75 16.9375 13.703125 16.863281 C 13.65625 16.789062 13.617188 16.707031 13.589844 16.617188 C 13.566406 16.527344 13.550781 16.429688 13.550781 16.328125 C 13.550781 16.207031 13.570312 16.09375 13.605469 15.988281 C 13.640625 15.882812 13.695312 15.785156 13.757812 15.707031 C 13.820312 15.625 13.898438 15.558594 13.984375 15.507812 C 14.066406 15.460938 14.164062 15.433594 14.261719 15.429688 Z M 24.644531 27.316406 L 23.753906 27.316406 L 23.753906 8.824219 L 24.644531 8.824219 Z M 3.347656 0.0195312 L 3.347656 33.480469 L 5.125 33.480469 L 5.125 1.78125 L 24.644531 1.78125 L 24.644531 7.066406 L 23.753906 7.066406 L 23.753906 2.664062 L 12.664062 4.421875 L 12.664062 31.71875 L 23.753906 33.480469 L 23.753906 29.078125 L 24.644531 29.078125 L 24.644531 33.480469 L 26.417969 33.480469 L 26.417969 0.0195312 L 3.347656 0.0195312 " fill-opacity="1" fill-rule="nonzero"/></g><g fill="#040606" fill-opacity="1"><g transform="translate(37.757681, 12.286132)"><g><path d="M 3.917969 0 C 5.953125 0 7.960938 -1.003906 7.960938 -3.273438 C 7.960938 -5.558594 5.792969 -6.5625 3.730469 -6.5625 L 0.449219 -6.5625 C 0.414062 -6.5625 0.402344 -6.179688 0.449219 -6.179688 C 1.210938 -6.167969 1.339844 -6.160156 1.339844 -5.136719 L 1.339844 -1.425781 C 1.339844 -0.402344 1.210938 -0.394531 0.449219 -0.382812 C 0.402344 -0.382812 0.414062 0 0.449219 0 Z M 2.960938 -0.429688 C 2.886719 -0.851562 2.878906 -1.210938 2.878906 -1.996094 L 2.878906 -4.566406 C 2.878906 -5.34375 2.886719 -5.699219 2.960938 -6.121094 L 3.402344 -6.121094 C 5.449219 -6.121094 6.320312 -4.996094 6.320312 -3.28125 C 6.320312 -1.554688 5.429688 -0.429688 3.480469 -0.429688 Z M 2.960938 -0.429688 "/></g></g></g><g fill="#040606" fill-opacity="1"><g transform="translate(46.135814, 12.286132)"><g><path d="M 3.234375 -7.378906 C 3.648438 -7.378906 3.917969 -7.660156 3.917969 -7.960938 C 3.917969 -8.25 3.636719 -8.53125 3.234375 -8.53125 C 2.820312 -8.53125 2.558594 -8.25 2.558594 -7.960938 C 2.558594 -7.660156 2.832031 -7.378906 3.234375 -7.378906 Z M 5.183594 -7.378906 C 5.597656 -7.378906 5.871094 -7.660156 5.871094 -7.960938 C 5.871094 -8.25 5.597656 -8.53125 5.183594 -8.53125 C 4.78125 -8.53125 4.511719 -8.25 4.511719 -7.960938 C 4.511719 -7.660156 4.792969 -7.378906 5.183594 -7.378906 Z M 4.398438 0.0859375 C 6.246094 0.0859375 7.078125 -1.519531 7.078125 -2.945312 L 7.078125 -5.214844 C 7.078125 -5.953125 7.210938 -6.234375 8.183594 -6.234375 C 8.222656 -6.234375 8.222656 -6.5625 8.183594 -6.5625 L 5.089844 -6.5625 C 5.042969 -6.5625 5.042969 -6.132812 5.089844 -6.132812 C 6.460938 -6.132812 6.636719 -5.757812 6.636719 -4.78125 L 6.636719 -3.019531 C 6.636719 -1.480469 6.074219 -0.367188 4.605469 -0.367188 C 3.007812 -0.367188 2.773438 -1.742188 2.773438 -3.007812 L 2.773438 -5.136719 C 2.773438 -6.160156 2.90625 -6.167969 3.667969 -6.179688 C 3.714844 -6.179688 3.703125 -6.5625 3.667969 -6.5625 L 0.335938 -6.5625 C 0.300781 -6.5625 0.300781 -6.179688 0.335938 -6.179688 C 1.097656 -6.167969 1.238281 -6.160156 1.238281 -5.136719 L 1.238281 -2.925781 C 1.238281 -0.542969 2.820312 0.0859375 4.398438 0.0859375 Z M 4.398438 0.0859375 "/></g></g></g><g fill="#040606" fill-opacity="1"><g transform="translate(54.495212, 12.286132)"><g><path d="M 7.164062 0 C 7.246094 0.0859375 7.558594 0.0664062 7.558594 -0.0195312 L 7.558594 -5.109375 C 7.558594 -5.90625 7.6875 -6.214844 8.664062 -6.214844 C 8.699219 -6.214844 8.699219 -6.5625 8.664062 -6.5625 L 5.757812 -6.5625 C 5.710938 -6.5625 5.710938 -6.199219 5.757812 -6.199219 C 6.964844 -6.199219 7.125 -5.878906 7.125 -5.0625 L 7.125 -2.210938 L 3.085938 -6.5625 L 0.535156 -6.5625 C 0.496094 -6.5625 0.488281 -6.121094 0.535156 -6.121094 C 1.398438 -6.113281 1.546875 -6.113281 1.546875 -4.949219 L 1.546875 -1.453125 C 1.546875 -0.65625 1.414062 -0.347656 0.441406 -0.347656 C 0.402344 -0.347656 0.402344 0 0.441406 0 L 3.355469 0 C 3.394531 0 3.394531 -0.367188 3.355469 -0.367188 C 2.148438 -0.367188 1.988281 -0.683594 1.988281 -1.5 L 1.988281 -5.503906 Z M 7.164062 0 "/></g></g></g><g fill="#040606" fill-opacity="1"><g transform="translate(63.407527, 12.286132)"><g><path d="M 7.605469 -6.5625 L 5.0625 -6.5625 C 5.027344 -6.5625 5.027344 -6.160156 5.0625 -6.160156 C 6.121094 -6.160156 6.039062 -5.859375 5.636719 -5.035156 L 4.539062 -2.851562 L 3.46875 -4.894531 C 2.792969 -6.179688 3.027344 -6.179688 4.003906 -6.179688 C 4.050781 -6.179688 4.050781 -6.5625 4.003906 -6.5625 L 0.226562 -6.5625 C 0.1875 -6.5625 0.1875 -6.179688 0.226562 -6.179688 C 0.910156 -6.179688 1.085938 -6.179688 1.78125 -4.914062 L 3.253906 -2.277344 L 3.253906 -1.519531 C 3.253906 -0.429688 3.054688 -0.421875 1.941406 -0.414062 C 1.875 -0.414062 1.882812 0 1.941406 0 L 6.09375 0 C 6.152344 0 6.160156 -0.414062 6.09375 -0.414062 C 4.988281 -0.421875 4.792969 -0.429688 4.792969 -1.519531 L 4.792969 -2.390625 L 6.152344 -5.089844 C 6.554688 -5.878906 6.863281 -6.179688 7.605469 -6.179688 C 7.632812 -6.179688 7.632812 -6.5625 7.605469 -6.5625 Z M 7.605469 -6.5625 "/></g></g></g><g fill="#040606" fill-opacity="1"><g transform="translate(71.232744, 12.286132)"><g><path d="M 7.867188 -0.382812 C 7.230469 -0.382812 7.070312 -0.382812 6.535156 -1.726562 L 4.519531 -6.742188 C 4.5 -6.761719 4.480469 -6.769531 4.433594 -6.761719 C 3.949219 -6.703125 3.515625 -6.648438 3.027344 -6.582031 C 2.992188 -6.574219 2.972656 -6.535156 3 -6.480469 L 3.308594 -5.699219 L 1.527344 -1.507812 C 1.191406 -0.695312 0.910156 -0.382812 0.207031 -0.382812 C 0.179688 -0.382812 0.179688 0 0.207031 0 L 2.804688 0 C 2.839844 0 2.839844 -0.382812 2.804688 -0.382812 C 1.632812 -0.382812 1.660156 -0.695312 2.007812 -1.507812 L 2.089844 -1.707031 C 2.457031 -1.707031 2.953125 -1.707031 3.355469 -1.707031 L 4.902344 -1.707031 C 5.429688 -0.382812 5.242188 -0.382812 4.472656 -0.382812 C 4.433594 -0.382812 4.433594 0 4.472656 0 L 7.867188 0 C 7.902344 0 7.902344 -0.382812 7.867188 -0.382812 Z M 2.269531 -2.136719 L 3.535156 -5.128906 C 3.9375 -4.125 4.339844 -3.121094 4.726562 -2.136719 C 4.257812 -2.136719 3.816406 -2.136719 3.355469 -2.136719 Z M 2.269531 -2.136719 "/></g></g></g><g fill="#040606" fill-opacity="1"><g transform="translate(30.583701, 23.448241)"><g><path d="M 13.191406 1.03125 C 12.628906 1.753906 12.386719 1.949219 12.011719 1.949219 C 10.753906 1.949219 5.765625 0.535156 4.386719 0.535156 C 4.144531 0.535156 3.636719 0.835938 3.421875 0.929688 L 4.425781 0.113281 C 6.515625 0.0273438 7.996094 -1.351562 7.996094 -3.28125 C 7.996094 -5.269531 6.414062 -6.683594 4.210938 -6.683594 C 2.007812 -6.683594 0.421875 -5.269531 0.421875 -3.28125 C 0.421875 -1.367188 1.875 0 3.9375 0.113281 L 2.617188 1.378906 C 1.960938 1.648438 1.960938 2.070312 2.210938 2.070312 C 2.445312 2.070312 2.625 1.835938 3.027344 1.398438 C 3.292969 1.246094 3.488281 1.171875 3.601562 1.171875 C 5.261719 1.171875 8.992188 2.914062 11.382812 2.914062 C 12.085938 2.914062 12.6875 2.277344 13.40625 1.191406 Z M 2.070312 -3.28125 C 2.070312 -5.148438 2.832031 -6.1875 4.21875 -6.1875 C 5.570312 -6.1875 6.347656 -5.089844 6.347656 -3.28125 C 6.347656 -1.460938 5.570312 -0.375 4.210938 -0.375 C 2.859375 -0.375 2.070312 -1.453125 2.070312 -3.28125 Z M 2.070312 -3.28125 "/></g></g></g><g fill="#040606" fill-opacity="1"><g transform="translate(39.008695, 23.448241)"><g><path d="M 7.867188 -0.382812 C 7.230469 -0.382812 7.070312 -0.382812 6.535156 -1.726562 L 4.519531 -6.742188 C 4.5 -6.761719 4.480469 -6.769531 4.433594 -6.761719 C 3.949219 -6.703125 3.515625 -6.648438 3.027344 -6.582031 C 2.992188 -6.574219 2.972656 -6.535156 3 -6.480469 L 3.308594 -5.699219 L 1.527344 -1.507812 C 1.191406 -0.695312 0.910156 -0.382812 0.207031 -0.382812 C 0.179688 -0.382812 0.179688 0 0.207031 0 L 2.804688 0 C 2.839844 0 2.839844 -0.382812 2.804688 -0.382812 C 1.632812 -0.382812 1.660156 -0.695312 2.007812 -1.507812 L 2.089844 -1.707031 C 2.457031 -1.707031 2.953125 -1.707031 3.355469 -1.707031 L 4.902344 -1.707031 C 5.429688 -0.382812 5.242188 -0.382812 4.472656 -0.382812 C 4.433594 -0.382812 4.433594 0 4.472656 0 L 7.867188 0 C 7.902344 0 7.902344 -0.382812 7.867188 -0.382812 Z M 2.269531 -2.136719 L 3.535156 -5.128906 C 3.9375 -4.125 4.339844 -3.121094 4.726562 -2.136719 C 4.257812 -2.136719 3.816406 -2.136719 3.355469 -2.136719 Z M 2.269531 -2.136719 "/></g></g></g><g fill="#040606" fill-opacity="1"><g transform="translate(47.086939, 23.448241)"><g><path d="M 4.183594 -2.464844 C 6.039062 -2.464844 7.144531 -3.386719 7.144531 -4.574219 C 7.144531 -5.757812 5.980469 -6.5625 4.03125 -6.5625 L 0.449219 -6.5625 C 0.414062 -6.5625 0.402344 -6.179688 0.449219 -6.179688 C 1.210938 -6.167969 1.339844 -6.160156 1.339844 -5.136719 L 1.339844 -1.425781 C 1.339844 -0.402344 1.210938 -0.394531 0.449219 -0.382812 C 0.402344 -0.382812 0.414062 0 0.449219 0 L 4.246094 0 C 4.3125 0 4.324219 -0.429688 4.246094 -0.429688 C 3.085938 -0.441406 2.878906 -0.441406 2.878906 -1.566406 L 2.878906 -2.464844 Z M 2.960938 -6.132812 L 3.441406 -6.132812 C 4.734375 -6.132812 5.503906 -5.644531 5.503906 -4.585938 C 5.503906 -3.496094 4.773438 -2.898438 3.542969 -2.898438 L 2.878906 -2.898438 L 2.878906 -5.109375 C 2.878906 -5.765625 2.933594 -5.972656 2.960938 -6.132812 Z M 2.960938 -6.132812 "/></g></g></g><g fill="#040606" fill-opacity="1"><g transform="translate(54.45295, 23.448241)"><g><path d="M 2.792969 -6.5625 L 0.449219 -6.5625 C 0.414062 -6.5625 0.402344 -6.179688 0.449219 -6.179688 C 1.210938 -6.167969 1.339844 -6.160156 1.339844 -5.136719 L 1.339844 -1.425781 C 1.339844 -0.402344 1.210938 -0.394531 0.449219 -0.382812 C 0.402344 -0.382812 0.414062 0 0.449219 0 L 3.777344 0 C 3.816406 0 3.816406 -0.382812 3.777344 -0.382812 C 3.019531 -0.394531 2.878906 -0.402344 2.878906 -1.425781 L 2.878906 -5.136719 C 2.878906 -6.160156 3.019531 -6.167969 3.777344 -6.179688 C 3.816406 -6.179688 3.816406 -6.5625 3.777344 -6.5625 Z M 2.792969 -6.5625 "/></g></g></g><g fill="#040606" fill-opacity="1"><g transform="translate(58.679504, 23.448241)"><g><path d="M 2.878906 -0.429688 L 2.878906 -5.136719 C 2.878906 -6.160156 3.039062 -6.167969 3.957031 -6.179688 C 4.003906 -6.179688 3.996094 -6.574219 3.949219 -6.574219 C 3.253906 -6.5625 3.054688 -6.5625 2.773438 -6.5625 L 1.433594 -6.554688 L 0.449219 -6.554688 C 0.414062 -6.554688 0.402344 -6.167969 0.449219 -6.167969 C 1.210938 -6.160156 1.339844 -6.152344 1.339844 -5.128906 L 1.339844 -1.425781 C 1.339844 -0.402344 1.210938 -0.394531 0.449219 -0.382812 C 0.402344 -0.382812 0.414062 0 0.449219 0 L 5.082031 0 C 5.523438 0 6.046875 -0.0273438 6.261719 0.429688 C 6.308594 0.488281 6.515625 0.476562 6.527344 0.429688 L 6.902344 -2.558594 C 6.902344 -2.617188 6.628906 -2.652344 6.609375 -2.597656 C 5.691406 -0.234375 5.335938 -0.429688 3.609375 -0.429688 Z M 2.878906 -0.429688 "/></g></g></g><g fill="#040606" fill-opacity="1"><g transform="translate(65.858083, 23.448241)"><g><path d="M 7.867188 -0.382812 C 7.230469 -0.382812 7.070312 -0.382812 6.535156 -1.726562 L 4.519531 -6.742188 C 4.5 -6.761719 4.480469 -6.769531 4.433594 -6.761719 C 3.949219 -6.703125 3.515625 -6.648438 3.027344 -6.582031 C 2.992188 -6.574219 2.972656 -6.535156 3 -6.480469 L 3.308594 -5.699219 L 1.527344 -1.507812 C 1.191406 -0.695312 0.910156 -0.382812 0.207031 -0.382812 C 0.179688 -0.382812 0.179688 0 0.207031 0 L 2.804688 0 C 2.839844 0 2.839844 -0.382812 2.804688 -0.382812 C 1.632812 -0.382812 1.660156 -0.695312 2.007812 -1.507812 L 2.089844 -1.707031 C 2.457031 -1.707031 2.953125 -1.707031 3.355469 -1.707031 L 4.902344 -1.707031 C 5.429688 -0.382812 5.242188 -0.382812 4.472656 -0.382812 C 4.433594 -0.382812 4.433594 0 4.472656 0 L 7.867188 0 C 7.902344 0 7.902344 -0.382812 7.867188 -0.382812 Z M 2.269531 -2.136719 L 3.535156 -5.128906 C 3.9375 -4.125 4.339844 -3.121094 4.726562 -2.136719 C 4.257812 -2.136719 3.816406 -2.136719 3.355469 -2.136719 Z M 2.269531 -2.136719 "/></g></g></g><g fill="#040606" fill-opacity="1"><g transform="translate(73.936328, 23.448241)"><g><path d="M 8.15625 -0.382812 C 7.492188 -0.382812 7.332031 -0.382812 6.769531 -1.714844 L 6.621094 -2.0625 C 6.394531 -2.605469 5.878906 -2.867188 5.25 -2.992188 C 6.402344 -3.339844 7.144531 -3.976562 7.144531 -4.792969 C 7.144531 -5.972656 5.980469 -6.5625 4.097656 -6.5625 L 0.449219 -6.5625 C 0.414062 -6.5625 0.402344 -6.179688 0.449219 -6.179688 C 1.210938 -6.167969 1.339844 -6.160156 1.339844 -5.136719 L 1.339844 -1.425781 C 1.339844 -0.402344 1.210938 -0.394531 0.449219 -0.382812 C 0.402344 -0.382812 0.414062 0 0.449219 0 L 4.246094 0 C 4.3125 0 4.324219 -0.429688 4.246094 -0.429688 C 3.085938 -0.441406 2.878906 -0.441406 2.878906 -1.566406 L 2.878906 -2.691406 L 3.007812 -2.691406 C 4.089844 -2.691406 4.808594 -2.585938 5.230469 -1.574219 L 5.449219 -1.058594 C 5.652344 -0.570312 5.777344 -0.0742188 6.46875 0 L 8.15625 0 C 8.195312 0 8.195312 -0.382812 8.15625 -0.382812 Z M 2.960938 -6.132812 L 3.355469 -6.132812 C 4.699219 -6.132812 5.503906 -5.886719 5.503906 -4.800781 C 5.503906 -3.75 4.464844 -3.121094 3.09375 -3.121094 L 2.878906 -3.121094 L 2.878906 -5.109375 C 2.878906 -5.765625 2.933594 -5.972656 2.960938 -6.132812 Z M 2.960938 -6.132812 "/></g></g></g><g fill="#040606" fill-opacity="1"><g transform="translate(82.267612, 23.448241)"><g><path d="M 2.792969 -6.5625 L 0.449219 -6.5625 C 0.414062 -6.5625 0.402344 -6.179688 0.449219 -6.179688 C 1.210938 -6.167969 1.339844 -6.160156 1.339844 -5.136719 L 1.339844 -1.425781 C 1.339844 -0.402344 1.210938 -0.394531 0.449219 -0.382812 C 0.402344 -0.382812 0.414062 0 0.449219 0 L 3.777344 0 C 3.816406 0 3.816406 -0.382812 3.777344 -0.382812 C 3.019531 -0.394531 2.878906 -0.402344 2.878906 -1.425781 L 2.878906 -5.136719 C 2.878906 -6.160156 3.019531 -6.167969 3.777344 -6.179688 C 3.816406 -6.179688 3.816406 -6.5625 3.777344 -6.5625 Z M 2.792969 -6.5625 "/></g></g></g></svg>